<?xml version="1.0" encoding="UTF-8"?>
<svg width="118px" height="101px" viewBox="0 0 118 101" version="1.1" xmlns="http://www.w3.org/2000/svg" xmlns:xlink="http://www.w3.org/1999/xlink">
    <title>870830C9-1B75-487F-92DC-DF5AF4E75E3D</title>
    <g id="Desktop" stroke="none" stroke-width="1" fill="none" fill-rule="evenodd">
        <g id="product-page" transform="translate(-955.000000, -419.000000)">
            <g id="Group-3" transform="translate(955.664328, 419.000000)">
                <text id="297mm" font-family="SofiaPro-Regular, Sofia Pro" font-size="14" font-weight="normal" letter-spacing="0.2" fill="#111111">
                    <tspan x="68.2374541" y="39.7970863">297mm</tspan>
                </text>
                <text id="210mm" font-family="SofiaPro-Regular, Sofia Pro" font-size="14" font-weight="normal" letter-spacing="0.2" fill="#111111">
                    <tspan x="8.32164075" y="96.3842434">210mm</tspan>
                </text>
                <path id="Line-3" d="M0.416082037,69.9786847 C0.661541926,69.9786847 0.865690408,70.1555599 0.908026368,70.3888091 L0.916082037,70.4786847 L0.916,73.978 L4.41608204,73.9786847 C4.69222441,73.9786847 4.91608204,74.2025423 4.91608204,74.4786847 C4.91608204,74.7241446 4.73920688,74.9282931 4.50595767,74.970629 L4.41608204,74.9786847 L0.916,74.978 L0.916082037,78.4786847 C0.916082037,78.7548271 0.692224412,78.9786847 0.416082037,78.9786847 C0.170622149,78.9786847 -0.0335263329,78.8018095 -0.0758622931,78.5685603 L-0.0839179625,78.4786847 L-0.0839179625,70.4786847 C-0.0839179625,70.2025423 0.139939663,69.9786847 0.416082037,69.9786847 Z M52.0102547,69.9786847 C52.2557146,69.9786847 52.4598631,70.1555599 52.502199,70.3888091 L52.5102547,70.4786847 L52.5102547,78.4786847 C52.5102547,78.7548271 52.2863971,78.9786847 52.0102547,78.9786847 C51.7647948,78.9786847 51.5606463,78.8018095 51.5183104,78.5685603 L51.5102547,78.4786847 L51.5102547,70.4786847 C51.5102547,70.2025423 51.7341123,69.9786847 52.0102547,69.9786847 Z M13.416082,73.9786847 C13.6922244,73.9786847 13.916082,74.2025423 13.916082,74.4786847 C13.916082,74.7241446 13.7392069,74.9282931 13.5059577,74.970629 L13.416082,74.9786847 L9.41608204,74.9786847 C9.13993966,74.9786847 8.91608204,74.7548271 8.91608204,74.4786847 C8.91608204,74.2332248 9.0929572,74.0290763 9.32620641,73.9867404 L9.41608204,73.9786847 L13.416082,73.9786847 Z M22.416082,73.9786847 C22.6922244,73.9786847 22.916082,74.2025423 22.916082,74.4786847 C22.916082,74.7241446 22.7392069,74.9282931 22.5059577,74.970629 L22.416082,74.9786847 L18.416082,74.9786847 C18.1399397,74.9786847 17.916082,74.7548271 17.916082,74.4786847 C17.916082,74.2332248 18.0929572,74.0290763 18.3262064,73.9867404 L18.416082,73.9786847 L22.416082,73.9786847 Z M31.416082,73.9786847 C31.6922244,73.9786847 31.916082,74.2025423 31.916082,74.4786847 C31.916082,74.7241446 31.7392069,74.9282931 31.5059577,74.970629 L31.416082,74.9786847 L27.416082,74.9786847 C27.1399397,74.9786847 26.916082,74.7548271 26.916082,74.4786847 C26.916082,74.2332248 27.0929572,74.0290763 27.3262064,73.9867404 L27.416082,73.9786847 L31.416082,73.9786847 Z M40.416082,73.9786847 C40.6922244,73.9786847 40.916082,74.2025423 40.916082,74.4786847 C40.916082,74.7241446 40.7392069,74.9282931 40.5059577,74.970629 L40.416082,74.9786847 L36.416082,74.9786847 C36.1399397,74.9786847 35.916082,74.7548271 35.916082,74.4786847 C35.916082,74.2332248 36.0929572,74.0290763 36.3262064,73.9867404 L36.416082,73.9786847 L40.416082,73.9786847 Z M49.416082,73.9786847 C49.6922244,73.9786847 49.916082,74.2025423 49.916082,74.4786847 C49.916082,74.7241446 49.7392069,74.9282931 49.5059577,74.970629 L49.416082,74.9786847 L45.416082,74.9786847 C45.1399397,74.9786847 44.916082,74.7548271 44.916082,74.4786847 C44.916082,74.2332248 45.0929572,74.0290763 45.3262064,73.9867404 L45.416082,73.9786847 L49.416082,73.9786847 Z" fill="#222222" fill-rule="nonzero"></path>
                <rect id="Rectangle" stroke="#111111" stroke-width="2" transform="translate(26.500000, 33.000000) scale(-1, 1) translate(-26.500000, -33.000000) " x="1" y="1" width="51" height="64"></rect>
                <path id="Line-4" d="M57.1640595,66.657044 C56.8879171,66.657044 56.6640595,66.4331863 56.6640595,66.157044 C56.6640595,65.9115841 56.8409347,65.7074356 57.0741839,65.6650996 L57.1640595,65.657044 L60.664,65.657 L60.6640595,64.2482461 C60.6640595,63.9721037 60.8879171,63.7482461 61.1640595,63.7482461 C61.4095194,63.7482461 61.6136679,63.9251213 61.6560038,64.1583705 L61.6640595,64.2482461 L61.664,65.657 L65.1640595,65.657044 C65.4402019,65.657044 65.6640595,65.8809016 65.6640595,66.157044 C65.6640595,66.4025038 65.4871843,66.6066523 65.2539351,66.6489883 L65.1640595,66.657044 L57.1640595,66.657044 Z M61.1640595,54.7482461 C61.4095194,54.7482461 61.6136679,54.9251213 61.6560038,55.1583705 L61.6640595,55.2482461 L61.6640595,59.2482461 C61.6640595,59.5243885 61.4402019,59.7482461 61.1640595,59.7482461 C60.9185996,59.7482461 60.7144511,59.571371 60.6721152,59.3381217 L60.6640595,59.2482461 L60.6640595,55.2482461 C60.6640595,54.9721037 60.8879171,54.7482461 61.1640595,54.7482461 Z M61.1640595,45.7482461 C61.4095194,45.7482461 61.6136679,45.9251213 61.6560038,46.1583705 L61.6640595,46.2482461 L61.6640595,50.2482461 C61.6640595,50.5243885 61.4402019,50.7482461 61.1640595,50.7482461 C60.9185996,50.7482461 60.7144511,50.571371 60.6721152,50.3381217 L60.6640595,50.2482461 L60.6640595,46.2482461 C60.6640595,45.9721037 60.8879171,45.7482461 61.1640595,45.7482461 Z M61.1640595,36.7482461 C61.4095194,36.7482461 61.6136679,36.9251213 61.6560038,37.1583705 L61.6640595,37.2482461 L61.6640595,41.2482461 C61.6640595,41.5243885 61.4402019,41.7482461 61.1640595,41.7482461 C60.9185996,41.7482461 60.7144511,41.571371 60.6721152,41.3381217 L60.6640595,41.2482461 L60.6640595,37.2482461 C60.6640595,36.9721037 60.8879171,36.7482461 61.1640595,36.7482461 Z M61.1640595,27.7482461 C61.4095194,27.7482461 61.6136679,27.9251213 61.6560038,28.1583705 L61.6640595,28.2482461 L61.6640595,32.2482461 C61.6640595,32.5243885 61.4402019,32.7482461 61.1640595,32.7482461 C60.9185996,32.7482461 60.7144511,32.571371 60.6721152,32.3381217 L60.6640595,32.2482461 L60.6640595,28.2482461 C60.6640595,27.9721037 60.8879171,27.7482461 61.1640595,27.7482461 Z M61.1640595,18.7482461 C61.4095194,18.7482461 61.6136679,18.9251213 61.6560038,19.1583705 L61.6640595,19.2482461 L61.6640595,23.2482461 C61.6640595,23.5243885 61.4402019,23.7482461 61.1640595,23.7482461 C60.9185996,23.7482461 60.7144511,23.571371 60.6721152,23.3381217 L60.6640595,23.2482461 L60.6640595,19.2482461 C60.6640595,18.9721037 60.8879171,18.7482461 61.1640595,18.7482461 Z M61.1640595,9.74824611 C61.4095194,9.74824611 61.6136679,9.92512127 61.6560038,10.1583705 L61.6640595,10.2482461 L61.6640595,14.2482461 C61.6640595,14.5243885 61.4402019,14.7482461 61.1640595,14.7482461 C60.9185996,14.7482461 60.7144511,14.571371 60.6721152,14.3381217 L60.6640595,14.2482461 L60.6640595,10.2482461 C60.6640595,9.97210374 60.8879171,9.74824611 61.1640595,9.74824611 Z M65.1640595,0.748246112 C65.4402019,0.748246112 65.6640595,0.972103738 65.6640595,1.24824611 C65.6640595,1.493706 65.4871843,1.69785448 65.2539351,1.74019044 L65.1640595,1.74824611 L61.664,1.748 L61.6640595,5.24824611 C61.6640595,5.52438849 61.4402019,5.74824611 61.1640595,5.74824611 C60.9185996,5.74824611 60.7144511,5.57137095 60.6721152,5.33812174 L60.6640595,5.24824611 L60.664,1.748 L57.1640595,1.74824611 C56.8879171,1.74824611 56.6640595,1.52438849 56.6640595,1.24824611 C56.6640595,1.00278622 56.8409347,0.798637742 57.0741839,0.756301782 L57.1640595,0.748246112 L65.1640595,0.748246112 Z" fill="#222222" fill-rule="nonzero"></path>
            </g>
        </g>
    </g>
</svg>