<?xml version="1.0" encoding="UTF-8"?>
<svg width="125px" height="109px" viewBox="0 0 125 109" version="1.1" xmlns="http://www.w3.org/2000/svg" xmlns:xlink="http://www.w3.org/1999/xlink">
    <title>B8889751-6DFD-40D9-A8BD-1D08C72124AC</title>
    <g id="Desktop" stroke="none" stroke-width="1" fill="none" fill-rule="evenodd">
        <g id="product-page" transform="translate(-956.000000, -554.000000)">
            <g id="Group-3-Copy-4" transform="translate(956.496492, 554.642744)">
                <text id="420mm" font-family="SofiaPro-Regular, Sofia Pro" font-size="14" font-weight="normal" letter-spacing="0.2" fill="#111111">
                    <tspan x="73.7702207" y="42.887718">420mm</tspan>
                </text>
                <text id="297mm" font-family="SofiaPro-Regular, Sofia Pro" font-size="14" font-weight="normal" letter-spacing="0.2" fill="#111111">
                    <tspan x="8.99636838" y="104.046944">297mm</tspan>
                </text>
                <path id="Line-3" d="M0.449818419,75.9963345 C0.695278308,75.9963345 0.899426789,76.1732097 0.941762749,76.4064589 L0.949818419,76.4963345 L0.949,79.996 L4.44981842,79.9963345 C4.72596079,79.9963345 4.94981842,80.2201922 4.94981842,80.4963345 C4.94981842,80.7417944 4.77294326,80.9459429 4.53969405,80.9882789 L4.44981842,80.9963345 L0.949,80.996 L0.949818419,84.4963345 C0.949818419,84.7724769 0.725960794,84.9963345 0.449818419,84.9963345 C0.20435853,84.9963345 0.00021004854,84.8194594 -0.0421259117,84.5862102 L-0.0501815811,84.4963345 L-0.0501815811,76.4963345 C-0.0501815811,76.2201922 0.173676044,75.9963345 0.449818419,75.9963345 Z M56.2273024,75.9963345 C56.4727623,75.9963345 56.6769107,76.1732097 56.7192467,76.4064589 L56.7273024,76.4963345 L56.7273024,84.4963345 C56.7273024,84.7724769 56.5034447,84.9963345 56.2273024,84.9963345 C55.9818425,84.9963345 55.777694,84.8194594 55.735358,84.5862102 L55.7273024,84.4963345 L55.727,80.996 L54.4498184,80.9963345 C54.173676,80.9963345 53.9498184,80.7724769 53.9498184,80.4963345 C53.9498184,80.2508747 54.1266936,80.0467262 54.3599428,80.0043902 L54.4498184,79.9963345 L55.727,79.996 L55.7273024,76.4963345 C55.7273024,76.2201922 55.95116,75.9963345 56.2273024,75.9963345 Z M13.4498184,79.9963345 C13.7259608,79.9963345 13.9498184,80.2201922 13.9498184,80.4963345 C13.9498184,80.7417944 13.7729433,80.9459429 13.5396941,80.9882789 L13.4498184,80.9963345 L9.44981842,80.9963345 C9.17367604,80.9963345 8.94981842,80.7724769 8.94981842,80.4963345 C8.94981842,80.2508747 9.12669358,80.0467262 9.35994279,80.0043902 L9.44981842,79.9963345 L13.4498184,79.9963345 Z M22.4498184,79.9963345 C22.7259608,79.9963345 22.9498184,80.2201922 22.9498184,80.4963345 C22.9498184,80.7417944 22.7729433,80.9459429 22.5396941,80.9882789 L22.4498184,80.9963345 L18.4498184,80.9963345 C18.173676,80.9963345 17.9498184,80.7724769 17.9498184,80.4963345 C17.9498184,80.2508747 18.1266936,80.0467262 18.3599428,80.0043902 L18.4498184,79.9963345 L22.4498184,79.9963345 Z M31.4498184,79.9963345 C31.7259608,79.9963345 31.9498184,80.2201922 31.9498184,80.4963345 C31.9498184,80.7417944 31.7729433,80.9459429 31.5396941,80.9882789 L31.4498184,80.9963345 L27.4498184,80.9963345 C27.173676,80.9963345 26.9498184,80.7724769 26.9498184,80.4963345 C26.9498184,80.2508747 27.1266936,80.0467262 27.3599428,80.0043902 L27.4498184,79.9963345 L31.4498184,79.9963345 Z M40.4498184,79.9963345 C40.7259608,79.9963345 40.9498184,80.2201922 40.9498184,80.4963345 C40.9498184,80.7417944 40.7729433,80.9459429 40.5396941,80.9882789 L40.4498184,80.9963345 L36.4498184,80.9963345 C36.173676,80.9963345 35.9498184,80.7724769 35.9498184,80.4963345 C35.9498184,80.2508747 36.1266936,80.0467262 36.3599428,80.0043902 L36.4498184,79.9963345 L40.4498184,79.9963345 Z M49.4498184,79.9963345 C49.7259608,79.9963345 49.9498184,80.2201922 49.9498184,80.4963345 C49.9498184,80.7417944 49.7729433,80.9459429 49.5396941,80.9882789 L49.4498184,80.9963345 L45.4498184,80.9963345 C45.173676,80.9963345 44.9498184,80.7724769 44.9498184,80.4963345 C44.9498184,80.2508747 45.1266936,80.0467262 45.3599428,80.0043902 L45.4498184,79.9963345 L49.4498184,79.9963345 Z" fill="#222222" fill-rule="nonzero"></path>
                <rect id="Rectangle" stroke="#111111" stroke-width="2" transform="translate(28.500000, 35.500000) scale(-1, 1) translate(-28.500000, -35.500000) " x="1" y="1" width="55" height="69"></rect>
                <path id="Line-4" d="M70.1233076,71.0023307 C70.39945,71.0023307 70.6233076,71.2261883 70.6233076,71.5023307 C70.6233076,71.7477906 70.4464324,71.9519391 70.2131832,71.994275 L70.1233076,72.0023307 L62.1233076,72.0023307 C61.8471652,72.0023307 61.6233076,71.7784731 61.6233076,71.5023307 C61.6233076,71.2568708 61.8001827,71.0527223 62.0334319,71.0103864 L62.1233076,71.0023307 L70.1233076,71.0023307 Z M66.1233076,63.8491006 C66.3687675,63.8491006 66.5729159,64.0259757 66.6152519,64.2592249 L66.6233076,64.3491006 L66.6233076,68.3491006 C66.6233076,68.625243 66.39945,68.8491006 66.1233076,68.8491006 C65.8778477,68.8491006 65.6736992,68.6722254 65.6313632,68.4389762 L65.6233076,68.3491006 L65.6233076,64.3491006 C65.6233076,64.0729582 65.8471652,63.8491006 66.1233076,63.8491006 Z M66.1233076,54.8491006 C66.3687675,54.8491006 66.5729159,55.0259757 66.6152519,55.2592249 L66.6233076,55.3491006 L66.6233076,59.3491006 C66.6233076,59.625243 66.39945,59.8491006 66.1233076,59.8491006 C65.8778477,59.8491006 65.6736992,59.6722254 65.6313632,59.4389762 L65.6233076,59.3491006 L65.6233076,55.3491006 C65.6233076,55.0729582 65.8471652,54.8491006 66.1233076,54.8491006 Z M66.1233076,45.8491006 C66.3687675,45.8491006 66.5729159,46.0259757 66.6152519,46.2592249 L66.6233076,46.3491006 L66.6233076,50.3491006 C66.6233076,50.625243 66.39945,50.8491006 66.1233076,50.8491006 C65.8778477,50.8491006 65.6736992,50.6722254 65.6313632,50.4389762 L65.6233076,50.3491006 L65.6233076,46.3491006 C65.6233076,46.0729582 65.8471652,45.8491006 66.1233076,45.8491006 Z M66.1233076,36.8491006 C66.3687675,36.8491006 66.5729159,37.0259757 66.6152519,37.2592249 L66.6233076,37.3491006 L66.6233076,41.3491006 C66.6233076,41.625243 66.39945,41.8491006 66.1233076,41.8491006 C65.8778477,41.8491006 65.6736992,41.6722254 65.6313632,41.4389762 L65.6233076,41.3491006 L65.6233076,37.3491006 C65.6233076,37.0729582 65.8471652,36.8491006 66.1233076,36.8491006 Z M66.1233076,27.8491006 C66.3687675,27.8491006 66.5729159,28.0259757 66.6152519,28.2592249 L66.6233076,28.3491006 L66.6233076,32.3491006 C66.6233076,32.625243 66.39945,32.8491006 66.1233076,32.8491006 C65.8778477,32.8491006 65.6736992,32.6722254 65.6313632,32.4389762 L65.6233076,32.3491006 L65.6233076,28.3491006 C65.6233076,28.0729582 65.8471652,27.8491006 66.1233076,27.8491006 Z M66.1233076,18.8491006 C66.3687675,18.8491006 66.5729159,19.0259757 66.6152519,19.2592249 L66.6233076,19.3491006 L66.6233076,23.3491006 C66.6233076,23.625243 66.39945,23.8491006 66.1233076,23.8491006 C65.8778477,23.8491006 65.6736992,23.6722254 65.6313632,23.4389762 L65.6233076,23.3491006 L65.6233076,19.3491006 C65.6233076,19.0729582 65.8471652,18.8491006 66.1233076,18.8491006 Z M66.1233076,9.84910058 C66.3687675,9.84910058 66.5729159,10.0259757 66.6152519,10.2592249 L66.6233076,10.3491006 L66.6233076,14.3491006 C66.6233076,14.625243 66.39945,14.8491006 66.1233076,14.8491006 C65.8778477,14.8491006 65.6736992,14.6722254 65.6313632,14.4389762 L65.6233076,14.3491006 L65.6233076,10.3491006 C65.6233076,10.0729582 65.8471652,9.84910058 66.1233076,9.84910058 Z M70.1233076,0.849100579 C70.39945,0.849100579 70.6233076,1.0729582 70.6233076,1.34910058 C70.6233076,1.59456047 70.4464324,1.79870895 70.2131832,1.84104491 L70.1233076,1.84910058 L66.623,1.849 L66.6233076,5.34910058 C66.6233076,5.62524295 66.39945,5.84910058 66.1233076,5.84910058 C65.8778477,5.84910058 65.6736992,5.67222542 65.6313632,5.43897621 L65.6233076,5.34910058 L65.623,1.849 L62.1233076,1.84910058 C61.8471652,1.84910058 61.6233076,1.62524295 61.6233076,1.34910058 C61.6233076,1.10364069 61.8001827,0.899492209 62.0334319,0.857156248 L62.1233076,0.849100579 L70.1233076,0.849100579 Z" fill="#222222" fill-rule="nonzero"></path>
            </g>
        </g>
    </g>
</svg>