<?xml version="1.0" encoding="UTF-8"?>
<svg width="132px" height="122px" viewBox="0 0 132 122" version="1.1" xmlns="http://www.w3.org/2000/svg" xmlns:xlink="http://www.w3.org/1999/xlink">
    <title>4E2B2BEB-982C-47C9-BEF2-C324896964E8</title>
    <g id="Desktop" stroke="none" stroke-width="1" fill="none" fill-rule="evenodd">
        <g id="product-page" transform="translate(-956.000000, -697.000000)">
            <g id="Group-3-Copy-5" transform="translate(956.496492, 697.780353)">
                <text id="594mm" font-family="SofiaPro-Regular, Sofia Pro" font-size="14" font-weight="normal" letter-spacing="0.2" fill="#111111">
                    <tspan x="81.1472428" y="47.7599888">594mm</tspan>
                </text>
                <text id="420mm" font-family="SofiaPro-Regular, Sofia Pro" font-size="14" font-weight="normal" letter-spacing="0.2" fill="#111111">
                    <tspan x="6.89600522" y="117.176171">420mm</tspan>
                </text>
                <path id="Line-3" d="M0.494800261,84.2315929 C0.74026015,84.2315929 0.944408631,84.4084681 0.986744591,84.6417173 L0.994800261,84.7315929 L0.994,88.231 L4.49480026,88.2315929 C4.77094264,88.2315929 4.99480026,88.4554505 4.99480026,88.7315929 C4.99480026,88.9770528 4.8179251,89.1812013 4.58467589,89.2235372 L4.49480026,89.2315929 L0.994,89.231 L0.994800261,92.7315929 C0.994800261,93.0077353 0.770942636,93.2315929 0.494800261,93.2315929 C0.249340372,93.2315929 0.0451918904,93.0547177 0.0028559302,92.8214685 L-0.00519973922,92.7315929 L-0.00519973922,84.7315929 C-0.00519973922,84.4554505 0.218657886,84.2315929 0.494800261,84.2315929 Z M61.8500326,84.2315929 C62.0954925,84.2315929 62.299641,84.4084681 62.3419769,84.6417173 L62.3500326,84.7315929 L62.3500326,92.7315929 C62.3500326,93.0077353 62.126175,93.2315929 61.8500326,93.2315929 C61.6045727,93.2315929 61.4004242,93.0547177 61.3580883,92.8214685 L61.3500326,92.7315929 L61.3500326,84.7315929 C61.3500326,84.4554505 61.5738902,84.2315929 61.8500326,84.2315929 Z M13.4948003,88.2315929 C13.7709426,88.2315929 13.9948003,88.4554505 13.9948003,88.7315929 C13.9948003,88.9770528 13.8179251,89.1812013 13.5846759,89.2235372 L13.4948003,89.2315929 L9.49480026,89.2315929 C9.21865789,89.2315929 8.99480026,89.0077353 8.99480026,88.7315929 C8.99480026,88.486133 9.17167542,88.2819845 9.40492463,88.2396486 L9.49480026,88.2315929 L13.4948003,88.2315929 Z M22.4948003,88.2315929 C22.7709426,88.2315929 22.9948003,88.4554505 22.9948003,88.7315929 C22.9948003,88.9770528 22.8179251,89.1812013 22.5846759,89.2235372 L22.4948003,89.2315929 L18.4948003,89.2315929 C18.2186579,89.2315929 17.9948003,89.0077353 17.9948003,88.7315929 C17.9948003,88.486133 18.1716754,88.2819845 18.4049246,88.2396486 L18.4948003,88.2315929 L22.4948003,88.2315929 Z M31.4948003,88.2315929 C31.7709426,88.2315929 31.9948003,88.4554505 31.9948003,88.7315929 C31.9948003,88.9770528 31.8179251,89.1812013 31.5846759,89.2235372 L31.4948003,89.2315929 L27.4948003,89.2315929 C27.2186579,89.2315929 26.9948003,89.0077353 26.9948003,88.7315929 C26.9948003,88.486133 27.1716754,88.2819845 27.4049246,88.2396486 L27.4948003,88.2315929 L31.4948003,88.2315929 Z M40.4948003,88.2315929 C40.7709426,88.2315929 40.9948003,88.4554505 40.9948003,88.7315929 C40.9948003,88.9770528 40.8179251,89.1812013 40.5846759,89.2235372 L40.4948003,89.2315929 L36.4948003,89.2315929 C36.2186579,89.2315929 35.9948003,89.0077353 35.9948003,88.7315929 C35.9948003,88.486133 36.1716754,88.2819845 36.4049246,88.2396486 L36.4948003,88.2315929 L40.4948003,88.2315929 Z M49.4948003,88.2315929 C49.7709426,88.2315929 49.9948003,88.4554505 49.9948003,88.7315929 C49.9948003,88.9770528 49.8179251,89.1812013 49.5846759,89.2235372 L49.4948003,89.2315929 L45.4948003,89.2315929 C45.2186579,89.2315929 44.9948003,89.0077353 44.9948003,88.7315929 C44.9948003,88.486133 45.1716754,88.2819845 45.4049246,88.2396486 L45.4948003,88.2315929 L49.4948003,88.2315929 Z M58.4948003,88.2315929 C58.7709426,88.2315929 58.9948003,88.4554505 58.9948003,88.7315929 C58.9948003,88.9770528 58.8179251,89.1812013 58.5846759,89.2235372 L58.4948003,89.2315929 L54.4948003,89.2315929 C54.2186579,89.2315929 53.9948003,89.0077353 53.9948003,88.7315929 C53.9948003,88.486133 54.1716754,88.2819845 54.4049246,88.2396486 L54.4948003,88.2315929 L58.4948003,88.2315929 Z" fill="#222222" fill-rule="nonzero"></path>
                <rect id="Rectangle" stroke="#111111" stroke-width="2" transform="translate(31.500000, 39.500000) scale(-1, 1) translate(-31.500000, -39.500000) " x="1" y="1" width="61" height="77"></rect>
                <path id="Line-4" d="M76.7356383,78.3174484 C77.0117807,78.3174484 77.2356383,78.5413061 77.2356383,78.8174484 C77.2356383,79.0629083 77.0587632,79.2670568 76.825514,79.3093928 L76.7356383,79.3174484 L68.7356383,79.3174484 C68.459496,79.3174484 68.2356383,79.0935908 68.2356383,78.8174484 C68.2356383,78.5719886 68.4125135,78.3678401 68.6457627,78.3255041 L68.7356383,78.3174484 L76.7356383,78.3174484 Z M72.7356383,72.9871217 C72.9810982,72.9871217 73.1852467,73.1639968 73.2275827,73.397246 L73.2356383,73.4871217 L73.2356383,77.4871217 C73.2356383,77.763264 73.0117807,77.9871217 72.7356383,77.9871217 C72.4901784,77.9871217 72.28603,77.8102465 72.243694,77.5769973 L72.2356383,77.4871217 L72.2356383,73.4871217 C72.2356383,73.2109793 72.459496,72.9871217 72.7356383,72.9871217 Z M72.7356383,63.9871217 C72.9810982,63.9871217 73.1852467,64.1639968 73.2275827,64.397246 L73.2356383,64.4871217 L73.2356383,68.4871217 C73.2356383,68.763264 73.0117807,68.9871217 72.7356383,68.9871217 C72.4901784,68.9871217 72.28603,68.8102465 72.243694,68.5769973 L72.2356383,68.4871217 L72.2356383,64.4871217 C72.2356383,64.2109793 72.459496,63.9871217 72.7356383,63.9871217 Z M72.7356383,54.9871217 C72.9810982,54.9871217 73.1852467,55.1639968 73.2275827,55.397246 L73.2356383,55.4871217 L73.2356383,59.4871217 C73.2356383,59.763264 73.0117807,59.9871217 72.7356383,59.9871217 C72.4901784,59.9871217 72.28603,59.8102465 72.243694,59.5769973 L72.2356383,59.4871217 L72.2356383,55.4871217 C72.2356383,55.2109793 72.459496,54.9871217 72.7356383,54.9871217 Z M72.7356383,45.9871217 C72.9810982,45.9871217 73.1852467,46.1639968 73.2275827,46.397246 L73.2356383,46.4871217 L73.2356383,50.4871217 C73.2356383,50.763264 73.0117807,50.9871217 72.7356383,50.9871217 C72.4901784,50.9871217 72.28603,50.8102465 72.243694,50.5769973 L72.2356383,50.4871217 L72.2356383,46.4871217 C72.2356383,46.2109793 72.459496,45.9871217 72.7356383,45.9871217 Z M72.7356383,36.9871217 C72.9810982,36.9871217 73.1852467,37.1639968 73.2275827,37.397246 L73.2356383,37.4871217 L73.2356383,41.4871217 C73.2356383,41.763264 73.0117807,41.9871217 72.7356383,41.9871217 C72.4901784,41.9871217 72.28603,41.8102465 72.243694,41.5769973 L72.2356383,41.4871217 L72.2356383,37.4871217 C72.2356383,37.2109793 72.459496,36.9871217 72.7356383,36.9871217 Z M72.7356383,27.9871217 C72.9810982,27.9871217 73.1852467,28.1639968 73.2275827,28.397246 L73.2356383,28.4871217 L73.2356383,32.4871217 C73.2356383,32.763264 73.0117807,32.9871217 72.7356383,32.9871217 C72.4901784,32.9871217 72.28603,32.8102465 72.243694,32.5769973 L72.2356383,32.4871217 L72.2356383,28.4871217 C72.2356383,28.2109793 72.459496,27.9871217 72.7356383,27.9871217 Z M72.7356383,18.9871217 C72.9810982,18.9871217 73.1852467,19.1639968 73.2275827,19.397246 L73.2356383,19.4871217 L73.2356383,23.4871217 C73.2356383,23.763264 73.0117807,23.9871217 72.7356383,23.9871217 C72.4901784,23.9871217 72.28603,23.8102465 72.243694,23.5769973 L72.2356383,23.4871217 L72.2356383,19.4871217 C72.2356383,19.2109793 72.459496,18.9871217 72.7356383,18.9871217 Z M72.7356383,9.98712167 C72.9810982,9.98712167 73.1852467,10.1639968 73.2275827,10.397246 L73.2356383,10.4871217 L73.2356383,14.4871217 C73.2356383,14.763264 73.0117807,14.9871217 72.7356383,14.9871217 C72.4901784,14.9871217 72.28603,14.8102465 72.243694,14.5769973 L72.2356383,14.4871217 L72.2356383,10.4871217 C72.2356383,10.2109793 72.459496,9.98712167 72.7356383,9.98712167 Z M76.7356383,0.987121669 C77.0117807,0.987121669 77.2356383,1.21097929 77.2356383,1.48712167 C77.2356383,1.73258156 77.0587632,1.93673004 76.825514,1.979066 L76.7356383,1.98712167 L73.235,1.987 L73.2356383,5.48712167 C73.2356383,5.76326404 73.0117807,5.98712167 72.7356383,5.98712167 C72.4901784,5.98712167 72.28603,5.81024651 72.243694,5.5769973 L72.2356383,5.48712167 L72.235,1.987 L68.7356383,1.98712167 C68.459496,1.98712167 68.2356383,1.76326404 68.2356383,1.48712167 C68.2356383,1.24166178 68.4125135,1.0375133 68.6457627,0.995177338 L68.7356383,0.987121669 L76.7356383,0.987121669 Z" fill="#222222" fill-rule="nonzero"></path>
            </g>
        </g>
    </g>
</svg>